<svg  fill="#e48900" version="1.1" id="Layer_1" xmlns="http://www.w3.org/2000/svg" xmlns:xlink="http://www.w3.org/1999/xlink" x="0px" y="0px"
	 viewBox="0 0 511.984 511.984" style="enable-background:new 0 0 511.984 511.984;" xml:space="preserve">
<g>
	<g>
		
			<rect x="410.058" y="55.876" transform="matrix(0.7071 -0.7071 0.7071 0.7071 76.8186 331.6835)" width="57.457" height="34.474"/>
	</g>
</g>
<g>
	<g>
		
			<rect x="369.437" y="15.266" transform="matrix(0.7072 -0.7071 0.7071 0.7072 93.6185 291.0459)" width="57.461" height="34.476"/>
	</g>
</g>
<g>
	<g>
		<rect x="450.687" y="96.485" transform="matrix(0.7071 -0.7071 0.7071 0.7071 60.0044 372.307)" width="57.457" height="34.474"/>
	</g>
</g>
<g>
	<g>
		<path d="M471.286,146.245l-40.625,40.628l-24.379-24.376l40.627-40.63l-16.248-16.249l-40.631,40.627l-24.377-24.377
			l40.629-40.627l-28.439-28.441l12.187,12.19l-40.629,40.626l-24.377-24.379l40.629-40.626l-20.315-20.315L239.703,125.932
			c-13.464,13.462-13.465,35.29-0.001,48.751l97.508,97.514c13.465,13.461,35.294,13.461,48.757-0.002l105.634-105.637
			L471.286,146.245z M349.401,195.002c-8.982,8.955-23.555,8.948-32.504,0c-8.958-8.959-8.96-23.537-0.005-32.499
			c8.974-8.961,23.549-8.959,32.504-0.01C358.365,171.462,358.363,186.041,349.401,195.002z"/>
	</g>
</g>
<g>
	<g>
		<path d="M312.839,296.578l-97.514-97.517c-4.924-4.922-9.007-10.462-12.187-16.439c-40.182,45.958-111.226,128.43-134.077,162.704
			c-17.745,26.618-24.67,58.327-10.469,83.753L0.065,487.606l24.378,24.378l58.573-58.573c25.393,14.054,57.004,7.124,83.554-10.572
			c34.281-22.854,116.771-93.92,162.727-134.098C323.377,305.604,317.817,301.556,312.839,296.578z"/>
	</g>
</g>
</svg>
