<svg fill="#e48900" version="1.1" id="Icons" xmlns="http://www.w3.org/2000/svg" xmlns:xlink="http://www.w3.org/1999/xlink" 
	 viewBox="0 0 32 32" xml:space="preserve">
<style type="text/css">
	.st0{fill:none;stroke:#e48900;stroke-width:2;stroke-linecap:round;stroke-linejoin:round;stroke-miterlimit:10;}
</style>
<g>
	<path d="M12.6,7h6.8l1.1-3.4c0.2-0.6,0.1-1.3-0.3-1.8c-0.4-0.5-1-0.8-1.6-0.8h-5.2c-0.6,0-1.2,0.3-1.6,0.8
		c-0.4,0.5-0.5,1.2-0.3,1.8L12.6,7z"/>
	<path d="M22,25.8L19.2,9h-6.4L10,25.8c-0.1,0.3,0.1,0.6,0.3,0.9l5,5c0.2,0.2,0.5,0.3,0.7,0.3s0.5-0.1,0.7-0.3l5-5
		C21.9,26.5,22,26.2,22,25.8z"/>
</g>
</svg>