<svg fill="#e48900" version="1.1" id="Capa_1" xmlns="http://www.w3.org/2000/svg" xmlns:xlink="http://www.w3.org/1999/xlink" x="0px" y="0px"
viewBox="0 0 63.442 63.441" style="enable-background:new 0 0 63.442 63.441;"
	 xml:space="preserve">
<g>
	<g>
		<path d="M14.464,39.657c9.191,0,16.643-5.039,16.643-11.256c0-1.648-0.537-3.207-1.476-4.617
			c-1.603,2.775-8.275,4.859-16.271,4.859c-5.472,0-10.326,3.333-13.36,5.313C2.862,37.358,8.262,39.657,14.464,39.657z"/>
		<path d="M50.082,28.643c-7.996,0-14.669-2.083-16.271-4.859c-0.941,1.41-1.477,2.97-1.477,4.617
			c0,6.217,7.451,11.256,16.643,11.256c6.203,0,11.603-2.299,14.465-5.701C60.408,31.976,55.553,28.643,50.082,28.643z"/>
	</g>
</g>
</svg>
